<mxfile host="app.diagrams.net" agent="Mozilla/5.0 (Windows NT 10.0; Win64; x64) AppleWebKit/537.36 (KHTML, like Gecko) Chrome/139.0.0.0 Safari/537.36" version="28.2.0">
  <diagram name="Page-1" id="pW2heAu35PnUS-hramph">
    <mxGraphModel dx="1042" dy="562" grid="1" gridSize="10" guides="1" tooltips="1" connect="1" arrows="1" fold="1" page="1" pageScale="1" pageWidth="850" pageHeight="1100" math="0" shadow="0">
      <root>
        <mxCell id="0" />
        <mxCell id="1" parent="0" />
        <mxCell id="QrliL1h7PanrwsfxGVIb-58" value="" style="edgeStyle=orthogonalEdgeStyle;rounded=0;orthogonalLoop=1;jettySize=auto;html=1;" edge="1" parent="1" source="QrliL1h7PanrwsfxGVIb-1" target="QrliL1h7PanrwsfxGVIb-5">
          <mxGeometry relative="1" as="geometry" />
        </mxCell>
        <mxCell id="QrliL1h7PanrwsfxGVIb-1" value="planning&amp;nbsp;" style="ellipse;whiteSpace=wrap;html=1;aspect=fixed;" vertex="1" parent="1">
          <mxGeometry x="330" y="40" width="100" height="100" as="geometry" />
        </mxCell>
        <mxCell id="QrliL1h7PanrwsfxGVIb-68" style="edgeStyle=orthogonalEdgeStyle;rounded=0;orthogonalLoop=1;jettySize=auto;html=1;entryX=0.5;entryY=0;entryDx=0;entryDy=0;" edge="1" parent="1" source="QrliL1h7PanrwsfxGVIb-5" target="QrliL1h7PanrwsfxGVIb-6">
          <mxGeometry relative="1" as="geometry" />
        </mxCell>
        <mxCell id="QrliL1h7PanrwsfxGVIb-5" value="develop" style="ellipse;whiteSpace=wrap;html=1;aspect=fixed;" vertex="1" parent="1">
          <mxGeometry x="330" y="170" width="100" height="100" as="geometry" />
        </mxCell>
        <mxCell id="QrliL1h7PanrwsfxGVIb-60" style="edgeStyle=orthogonalEdgeStyle;rounded=0;orthogonalLoop=1;jettySize=auto;html=1;exitX=0.5;exitY=1;exitDx=0;exitDy=0;entryX=0.5;entryY=0;entryDx=0;entryDy=0;" edge="1" parent="1" source="QrliL1h7PanrwsfxGVIb-6" target="QrliL1h7PanrwsfxGVIb-7">
          <mxGeometry relative="1" as="geometry" />
        </mxCell>
        <mxCell id="QrliL1h7PanrwsfxGVIb-6" value="build" style="ellipse;whiteSpace=wrap;html=1;aspect=fixed;" vertex="1" parent="1">
          <mxGeometry x="332.5" y="300" width="95" height="95" as="geometry" />
        </mxCell>
        <mxCell id="QrliL1h7PanrwsfxGVIb-61" style="edgeStyle=orthogonalEdgeStyle;rounded=0;orthogonalLoop=1;jettySize=auto;html=1;exitX=0.5;exitY=1;exitDx=0;exitDy=0;entryX=0.5;entryY=0;entryDx=0;entryDy=0;" edge="1" parent="1" source="QrliL1h7PanrwsfxGVIb-7" target="QrliL1h7PanrwsfxGVIb-8">
          <mxGeometry relative="1" as="geometry">
            <Array as="points">
              <mxPoint x="389" y="525" />
            </Array>
          </mxGeometry>
        </mxCell>
        <mxCell id="QrliL1h7PanrwsfxGVIb-7" value="test" style="ellipse;whiteSpace=wrap;html=1;aspect=fixed;" vertex="1" parent="1">
          <mxGeometry x="335" y="420" width="105" height="105" as="geometry" />
        </mxCell>
        <mxCell id="QrliL1h7PanrwsfxGVIb-62" style="edgeStyle=orthogonalEdgeStyle;rounded=0;orthogonalLoop=1;jettySize=auto;html=1;exitX=0.5;exitY=1;exitDx=0;exitDy=0;entryX=0.5;entryY=0;entryDx=0;entryDy=0;" edge="1" parent="1" source="QrliL1h7PanrwsfxGVIb-8" target="QrliL1h7PanrwsfxGVIb-52">
          <mxGeometry relative="1" as="geometry" />
        </mxCell>
        <mxCell id="QrliL1h7PanrwsfxGVIb-8" value="release" style="ellipse;whiteSpace=wrap;html=1;aspect=fixed;" vertex="1" parent="1">
          <mxGeometry x="335" y="570" width="108.75" height="108.75" as="geometry" />
        </mxCell>
        <mxCell id="QrliL1h7PanrwsfxGVIb-66" style="edgeStyle=orthogonalEdgeStyle;rounded=0;orthogonalLoop=1;jettySize=auto;html=1;exitX=0.5;exitY=1;exitDx=0;exitDy=0;entryX=0.5;entryY=0;entryDx=0;entryDy=0;" edge="1" parent="1" source="QrliL1h7PanrwsfxGVIb-52" target="QrliL1h7PanrwsfxGVIb-53">
          <mxGeometry relative="1" as="geometry" />
        </mxCell>
        <mxCell id="QrliL1h7PanrwsfxGVIb-52" value="deploy" style="ellipse;whiteSpace=wrap;html=1;aspect=fixed;" vertex="1" parent="1">
          <mxGeometry x="343.75" y="710" width="100" height="100" as="geometry" />
        </mxCell>
        <mxCell id="QrliL1h7PanrwsfxGVIb-67" value="" style="edgeStyle=orthogonalEdgeStyle;rounded=0;orthogonalLoop=1;jettySize=auto;html=1;" edge="1" parent="1" source="QrliL1h7PanrwsfxGVIb-53" target="QrliL1h7PanrwsfxGVIb-54">
          <mxGeometry relative="1" as="geometry" />
        </mxCell>
        <mxCell id="QrliL1h7PanrwsfxGVIb-53" value="operate" style="ellipse;whiteSpace=wrap;html=1;aspect=fixed;" vertex="1" parent="1">
          <mxGeometry x="343.75" y="840" width="100" height="100" as="geometry" />
        </mxCell>
        <mxCell id="QrliL1h7PanrwsfxGVIb-54" value="monitor" style="ellipse;whiteSpace=wrap;html=1;aspect=fixed;" vertex="1" parent="1">
          <mxGeometry x="343.75" y="970" width="100" height="100" as="geometry" />
        </mxCell>
      </root>
    </mxGraphModel>
  </diagram>
</mxfile>
